<?xml version="1.0" standalone="no"?><!DOCTYPE svg PUBLIC "-//W3C//DTD SVG 1.1//EN" "http://www.w3.org/Graphics/SVG/1.1/DTD/svg11.dtd"><svg t="1702723055611" class="icon" viewBox="0 0 1024 1024" version="1.1" xmlns="http://www.w3.org/2000/svg" p-id="1947" xmlns:xlink="http://www.w3.org/1999/xlink" width="60" height="60"><path d="M768 170.666667v648.106666l-188.16-117.333333a128 128 0 0 0-135.68 0L256 818.773333V170.666667h512m0-85.333334H256a85.333333 85.333333 0 0 0-85.333333 85.333334v725.333333a42.666667 42.666667 0 0 0 42.666666 42.666667 42.666667 42.666667 0 0 0 22.613334-6.4l253.44-158.72a42.666667 42.666667 0 0 1 45.226666 0l253.44 158.72A42.666667 42.666667 0 0 0 810.666667 938.666667a42.666667 42.666667 0 0 0 42.666666-42.666667V170.666667a85.333333 85.333333 0 0 0-85.333333-85.333334z" fill="#707070" p-id="1948"></path></svg>