<?xml version="1.0" standalone="no"?><!DOCTYPE svg PUBLIC "-//W3C//DTD SVG 1.1//EN" "http://www.w3.org/Graphics/SVG/1.1/DTD/svg11.dtd"><svg t="1702723046204" class="icon" viewBox="0 0 1024 1024" version="1.1" xmlns="http://www.w3.org/2000/svg" p-id="1488" xmlns:xlink="http://www.w3.org/1999/xlink" width="60" height="60"><path d="M512 82.922667a424.938667 424.938667 0 0 1 196.544 47.872C762.453333 107.573333 821.482667 96 885.333333 96c23.786667 0 39.253333 25.034667 28.618667 46.314667a7024.8 7024.8 0 0 0-56.917333 116.234666A424.853333 424.853333 0 0 1 938.666667 509.589333c0 235.637333-191.029333 426.666667-426.666667 426.666667s-426.666667-191.029333-426.666667-426.666667c0-235.648 191.029333-426.666667 426.666667-426.666666zM330.666667 362.666667a42.666667 42.666667 0 0 0-42.666667 42.666666v64a42.666667 42.666667 0 1 0 85.333333 0v-64a42.666667 42.666667 0 0 0-42.666666-42.666666z m170.666666 0a42.666667 42.666667 0 0 0-42.666666 42.666666v64a42.666667 42.666667 0 1 0 85.333333 0v-64a42.666667 42.666667 0 0 0-42.666667-42.666666z" fill="#ea569f" p-id="1489"></path></svg>