<svg
     viewBox="0 0 1024 1024"
     version="1.1"
     xmlns="http://www.w3.org/2000/svg"
     width="200"
     height="200">
    <path
        d="M811 189.4H558.1c-15.5 0-28 12.5-28 28s12.5 28 28 28h187.3l-191 191c-47.2-39-106-60.3-168.1-60.3-70.6 0-137 27.5-186.9 77.4-49.9 49.9-77.4 116.3-77.4 186.9s27.5 137 77.4 186.9c49.9 49.9 116.3 77.4 186.9 77.4s137-27.5 186.9-77.4 77.4-116.3 77.4-186.9c0-60.3-20.1-117.6-57.1-164.1L783 286.9v183.4c0 15.5 12.5 28 28 28s28-12.5 28-28V217.4c0-15.5-12.5-28-28-28zM533.6 787.9c-81.2 81.2-213.5 81.2-294.7 0-81.2-81.2-81.2-213.5 0-294.7 40.6-40.6 94-60.9 147.3-60.9s106.7 20.3 147.3 60.9c81.3 81.2 81.3 213.4 0.1 294.7z"
        fill="#4ed0ff"></path>
</svg>