<svg viewBox="0 0 1024 1024" version="1.1" xmlns="http://www.w3.org/2000/svg" p-id="16681" width="200" height="200"><path d="M1000.756301 684.868817l-95.243011-84.232258c-2.752688-229.023656-189.384946-413.453763-418.959139-413.453763-97.995699 0-188.283871 33.582796-259.853764 89.737634l-37.436559-33.032258c-12.111828-11.010753-30.830108-9.909677-41.84086 2.752688-11.010753 12.111828-9.909677 30.830108 2.752688 41.290323l32.48172 28.627957 25.324732 22.572043c15.415054 13.212903 16.516129 36.886022 3.303225 51.750537-9.909677 11.010753-25.875269 15.415054-39.638709 10.460215l-73.221506-64.96344c-24.223656-21.470968-61.660215-19.268817-83.131183 4.954838-21.470968 24.223656-19.268817 61.660215 4.954839 83.131183l65.513979 57.806452c-12.111828 39.088172-18.71828 80.378495-18.71828 123.32043 0 231.225806 187.733333 418.408602 418.95914 418.408602 126.623656 0 239.483871-55.604301 316.55914-144.24086l46.245161 40.739785c11.010753 9.35914 24.774194 14.864516 39.088172 14.864516 16.516129 0 32.48172-6.606452 44.043011-19.819355 21.470968-24.223656 19.268817-61.660215-4.954839-83.131183l-104.60215-92.490322c-13.212903-16.516129-12.662366-40.189247 1.651612-56.705377 13.763441-15.415054 35.784946-18.71828 53.402151-9.909677l74.322581 65.513978c6.606452 6.055914 15.415054 9.35914 24.223656 9.35914 9.909677 0 20.369892-4.404301 27.526881-12.111828 14.313978-14.313978 12.662366-37.436559-2.752688-51.2z" fill="#f31180" fill-opacity=".05" p-id="16682"></path><path d="M259.182108 690.924731c-0.550538-5.505376 1.101075-10.460215 2.752688-14.864516l0.550537-1.101075 11.561291 3.853763-0.550538 1.651613c-1.101075 3.303226-2.202151 6.606452-2.202151 9.35914l-12.111827 1.101075z m396.937634-202.047312c7.156989 0 14.313978 4.954839 16.516129 12.111828 12.111828 35.784946 23.673118 71.569892 35.784946 107.354839 7.707527 23.673118 15.965591 47.896774 23.673118 71.569892 0.963441 2.890323 1.084559 6.204559 1.101076 8.830624V833.513978c0 6.055914-1.651613 10.460215-4.954839 13.212904-4.404301 4.404301-10.460215 4.954839-13.212903 4.954838h-433.823656c-1.101075 1.651613-1.651613 1.651613-2.202151 1.651613-4.404301 0-9.909677-0.550538-14.313978-4.954838-5.505376-4.954839-4.954839-12.111828-4.954839-16.516129v-0.556043l-0.550537 0.005505v-141.488172h12.111827v140.932129l0.550538 0.005505v1.101076c0 2.752688 0 6.055914 1.101075 7.156989l0.550538 0.550537c0.990968 0.990968 3.765677 1.090065 6.320172 1.101076h434.660473c2.202151 0 3.853763-0.550538 4.404301-1.101076l0.550538-0.550537c0.550538-0.550538 1.101075-1.101075 1.101075-4.404301v-143.690323c0-2.202151 0-4.404301-0.550537-6.055914-7.707527-23.673118-15.965591-47.896774-23.673119-71.569892-12.111828-35.784946-23.673118-71.569892-35.784946-107.905377-0.550538-2.202151-2.752688-3.853763-4.404301-3.853763h-314.907527c-2.202151 0-4.404301 0-6.606452 0.550538-1.101075 0.550538-2.752688 1.651613-2.752688 3.303225l-0.660645-0.220215-8.147957 24.774194c-8.258065 25.027441-16.516129 49.906237-24.774193 75.093333l-24.223656 73.221506-11.561291-3.853764 24.223656-73.221505c11.010753-33.582796 22.021505-66.615054 33.032258-100.19785l0.660645 0.21471 0.231226-0.682667A17.385978 17.385978 0 0 1 331.853075 489.978495c2.829763-0.941419 5.665032-1.079054 8.494796-1.101076h315.771871z m-227.922581 193.789248c4.404301 0 9.35914 0.550538 13.212904 4.404301 5.505376 4.404301 5.505376 11.010753 5.505376 14.864516 0.550538 15.415054 9.35914 31.380645 22.021505 40.739785 9.909677 7.156989 22.572043 11.010753 34.683871 10.460215 14.313978-0.550538 28.627957-7.707527 37.987097-18.167742 8.258065-9.35914 13.212903-21.470968 13.763441-33.582796 0-2.752688 0.550538-9.35914 4.954839-13.212903 3.853763-4.404301 9.35914-4.954839 13.76344-4.954839h135.432258c3.303226 0 6.055914 2.752688 6.055914 6.055914 0 3.303226-2.752688 6.055914-6.055914 6.055914h-135.432258c-3.303226 0-4.404301 0.550538-4.404301 1.101076l-0.550537 0.550537c-1.101075 1.101075-1.101075 3.853763-1.101076 4.954839-0.550538 14.864516-6.055914 29.729032-16.516129 41.290322-12.111828 13.763441-28.627957 21.470968-46.795699 22.572043-1.101075-0.550538-2.202151-0.550538-3.303225-0.550537-14.313978 0-27.526882-4.404301-39.088172-12.662366-15.965591-11.56129-26.425806-30.27957-27.526882-50.098924 0-1.651613 0-4.954839-1.651613-6.055914l-0.550538-0.550538c-0.550538-0.550538-2.202151-1.101075-4.404301-1.101075h-135.432258c-3.303226 0-6.055914-2.752688-6.055914-6.055914 0-3.303226 2.752688-6.055914 6.055914-6.055914h135.432258z" fill="#f31180" fill-opacity=".2" p-id="16683"></path><path d="M628.042323 252.146237l61.109677 27.526881 100.748387-79.827957-76.524731 83.131183 76.524731 25.324731 41.84086-154.150537-203.698924 97.995699z m81.479569 50.649462l-4.404301 49.548387 27.526882-36.335484-23.122581-13.212903z m-252.146236 244.43871c-15.965591 8.808602-27.526882 13.212903-27.526882 13.212903l2.752688 6.606451c0.550538 0 12.111828-4.404301 28.627957-13.76344l-3.853763-6.055914z m34.683871-23.122581c-7.156989 5.505376-14.864516 11.010753-22.572043 15.965591-1.651613 1.101075-2.202151 3.303226-1.101075 4.954839 1.101075 1.651613 3.303226 2.202151 4.954838 1.101075 8.258065-4.954839 15.965591-10.460215 23.673119-16.516129 1.101075-0.550538 1.651613-2.202151 1.101075-3.303226 0-1.101075-1.101075-2.202151-2.202151-2.752688-1.101075-0.550538-2.752688-0.550538-3.853763 0.550538z m40.739785-37.987097c-1.651613-1.101075-3.853763-0.550538-4.954839 1.101075-6.055914 8.258065-13.212903 16.516129-21.470968 24.774194-1.101075 1.101075-1.101075 2.202151-1.101075 3.303226 0.550538 1.101075 1.101075 2.202151 2.752688 2.752688 1.101075 0.550538 2.752688 0 3.853764-1.101075 8.808602-8.258065 15.965591-17.066667 22.572043-25.875269 0.550538-0.550538 0.550538-1.651613 0.550537-2.752688-1.101075-0.550538-1.651613-1.651613-2.20215-2.202151z m16.516129-78.726882c0 1.101075 1.101075 2.202151 2.20215 2.752689 1.101075 0.550538 2.752688 0.550538 3.853764-0.550538 1.101075-0.550538 1.651613-2.202151 1.651613-3.303226-1.651613-16.516129-7.707527-28.627957-17.617205-37.436559-1.651613-1.101075-3.853763-1.101075-4.954838 0.550538-1.101075 1.651613-1.101075 3.853763 0 4.954838 8.258065 7.156989 13.212903 18.167742 14.864516 33.032258z m-60.008602-36.886021c0.550538 0 1.101075 0 1.651613-0.550538 9.909677-4.404301 20.92043-5.505376 30.27957-2.752688 1.101075 0.550538 2.752688 0 3.853763-1.101075 1.101075-1.101075 1.101075-2.202151 1.101075-3.303226 0-1.101075-1.101075-2.202151-2.752688-2.752688-11.010753-3.303226-24.223656-2.202151-35.234409 3.303226-1.651613 0.550538-2.202151 2.202151-2.20215 3.853763 0 1.651613 1.651613 3.303226 3.303226 3.303226z m-20.369893 37.436559c-0.550538-2.752688-1.101075-6.055914-0.550537-9.35914l3.303225-11.56129c1.651613-2.752688 3.303226-5.505376 6.055914-7.707527 1.651613-1.651613 1.101075-3.853763 0-4.954839-1.101075-1.101075-3.853763-1.651613-4.954838 0-9.909677 9.909677-13.763441 22.572043-10.460215 35.234409 0.550538 2.202151 2.202151 3.303226 4.404301 2.752688 2.202151-0.550538 2.752688-2.752688 2.20215-4.404301z m1.101076 12.662366c-1.651613 1.101075-2.202151 3.303226-1.101076 4.954838 3.853763 5.505376 8.808602 11.010753 15.415054 16.516129 2.202151 1.651613 4.404301 3.853763 7.156989 5.505377 1.101075 0.550538 2.752688 1.101075 3.853764 0.550537 1.101075-0.550538 2.202151-1.651613 2.20215-2.752688s-0.550538-2.752688-1.651613-3.303226l-6.606451-4.954838c-6.055914-4.954839-10.460215-9.909677-14.313979-14.864516-1.101075-2.202151-3.303226-2.752688-4.954838-1.651613z m58.356989 41.84086c2.202151 0 3.303226-1.651613 3.853763-3.303226 0-1.651613-1.101075-3.853763-3.303226-3.853763-7.156989-1.101075-14.313978-3.303226-21.470967-7.15699-1.651613-1.101075-3.853763 0-4.954839 1.651613-1.101075 1.651613 0 3.853763 1.651613 4.954839 7.707527 3.853763 15.965591 6.606452 24.223656 7.707527z m28.077419-9.35914c-1.651613 0.550538-2.752688 0.550538-4.404301 1.101075 2.752688-8.808602 4.404301-17.617204 4.954839-26.425806 0-1.101075 0-2.202151-1.101076-2.752688-1.101075-0.550538-1.101075-1.101075-2.20215-1.101076-2.202151 0-3.853763 1.101075-3.853764 3.303226-0.550538 9.35914-2.752688 19.268817-6.055913 28.07742h-4.404302c-2.202151 0-3.853763 1.651613-3.853763 3.853763 0 2.202151 1.651613 3.303226 3.853763 3.303226h1.101076c-1.651613 3.303226-3.303226 7.156989-4.954839 10.460215-1.101075 1.651613 0 3.853763 1.651613 4.954839 1.651613 1.101075 3.853763 0.550538 4.954839-1.651613 2.202151-4.404301 4.404301-9.35914 6.606451-14.313979 3.303226-0.550538 6.055914-1.101075 9.35914-2.20215 2.202151-0.550538 3.303226-2.202151 2.752688-4.404301-0.550538-1.651613-2.202151-2.752688-4.404301-2.202151z m43.492473-25.324731c-8.808602 7.707527-17.066667 13.763441-25.324731 18.167742-1.101075 0.550538-1.651613 1.651613-2.20215 3.303226 0 1.101075 0.550538 2.752688 1.651612 3.303225 1.101075 0.550538 2.752688 0.550538 3.853764 0 8.808602-4.954839 18.167742-11.010753 26.976344-19.268817 1.101075-1.101075 1.651613-2.202151 1.101075-3.303226 0-1.101075-1.101075-2.202151-2.752688-2.752688-1.101075-0.550538-2.202151 0-3.303226 0.550538z m37.987097-36.335484c-0.550538-0.550538-1.651613-1.101075-2.752688-0.550538s-1.651613 0.550538-2.202151 1.651613c-6.055914 8.258065-12.662366 15.965591-19.268817 22.572043-1.101075 1.651613-1.101075 3.853763 0 4.954839 1.101075 1.101075 3.853763 1.101075 4.954839 0 6.606452-7.156989 13.212903-14.864516 19.819355-23.122581 0.550538-0.550538 1.101075-1.651613 0.550537-2.752688 0-1.101075-0.550538-2.202151-1.101075-2.752688z m30.830108-47.346236c-1.101075-0.550538-1.651613-0.550538-2.752689-0.550538s-1.651613 1.101075-2.20215 1.651613c-6.055914 10.460215-12.111828 20.369892-18.71828 29.729032-0.550538 1.101075-1.101075 2.752688-0.550537 3.853763 0.550538 1.101075 1.651613 2.202151 3.303225 2.202151 1.101075 0 2.752688-0.550538 3.303226-1.651613 6.606452-9.909677 13.212903-19.819355 19.268817-30.27957 0.550538-1.101075 0.550538-1.651613 0.550538-2.752688-1.101075-0.550538-1.651613-1.651613-2.20215-2.20215z m23.12258-46.245162c-1.101075-0.550538-2.202151-0.550538-2.752688 0-1.101075 0.550538-1.651613 1.101075-2.202151 2.202151 0 0-4.954839 11.56129-13.212903 27.526881-0.550538 1.101075-0.550538 2.752688 0 3.853764 0.550538 1.101075 2.202151 1.651613 3.303226 1.651613 1.101075 0 2.752688-0.550538 3.303226-2.202151 8.808602-16.516129 13.212903-27.526882 13.763441-28.077419 0.550538-2.202151-0.550538-4.404301-2.202151-4.954839z" fill="#f31180" fill-opacity=".3" p-id="16684"></path><path d="M981.608602 313.255914c1.101075 19.268817 31.931183 35.784946 31.931183 35.784946-28.077419 0.550538-31.931183 36.335484-31.931183 36.335484-4.954839-24.223656-29.178495-34.133333-29.178494-34.133333 19.268817-4.954839 29.178495-37.987097 29.178494-37.987097z m30.27957-54.503226c0.506495 6.58443 10.333591 12.700903 11.902624 13.212903l0.077075 0.011011-0.974452 0.088086c-9.623398 1.299269-10.922667 12.8-10.999742 13.620301C1010.236559 276.92043 1000.877419 273.066667 1000.877419 273.066667c7.156989-1.651613 11.010753-14.313978 11.010753-14.313979zM409.049462 0c1.101075 14.864516 25.875269 27.526882 25.875269 27.526882-23.122581 0.550538-25.875269 27.526882-25.875269 27.526881-3.853763-18.167742-23.673118-25.875269-23.673118-25.875268 15.965591-3.853763 23.673118-29.178495 23.673118-29.178495z" fill="#f31180" fill-opacity=".2" p-id="16685"></path><path d="M735.397161 66.284731c10.460215 0 19.268817 8.808602 19.268817 19.268817s-8.808602 19.268817-19.268817 19.268818-19.268817-8.808602-19.268817-19.268818 8.808602-19.268817 19.268817-19.268817z m-528.516129 11.010753c7.707527 0 13.763441 6.055914 13.763441 13.763441s-6.055914 13.763441-13.763441 13.763441-13.763441-6.055914-13.763441-13.763441 6.055914-13.763441 13.763441-13.763441z" fill="#f31180" fill-opacity=".1" p-id="16686"></path></svg>