<?xml version="1.0" standalone="no"?><!DOCTYPE svg PUBLIC "-//W3C//DTD SVG 1.1//EN" "http://www.w3.org/Graphics/SVG/1.1/DTD/svg11.dtd"><svg t="1703949553989" class="icon" viewBox="0 0 1024 1024" version="1.1" xmlns="http://www.w3.org/2000/svg" p-id="1268" xmlns:xlink="http://www.w3.org/1999/xlink" width="60" height="60"><path d="M99.5328 543.60746667V197.0176c0-49.9712 32.69973333-89.088 82.1248-96.256a243.02933333 243.02933333 0 0 1 49.83466667-0.54613333c15.70133333 1.09226667 27.17013333 16.384 26.4192 32.42666666a31.40266667 31.40266667 0 0 1-29.9008 30.17386667c-10.51306667 0.34133333-21.02613333 0-31.5392 0.06826667-20.2752 0.27306667-33.5872 13.58506667-33.5872 34.06506666V890.19733333c0 20.82133333 13.38026667 34.2016 34.13333333 34.2016h629.48693333c21.36746667 0 34.4064-13.24373333 34.47466667-35.29386666V698.368l0.06826667-498.55146667a38.0928 38.0928 0 0 0-6.62186667-24.23466666 31.19786667 31.19786667 0 0 0-24.9856-12.56106667c-10.4448-0.2048-21.02613333 0-31.5392-0.06826667a31.88053333 31.88053333 0 0 1-32.3584-31.26613333 31.40266667 31.40266667 0 0 1 31.60746667-31.88053333c18.15893333 0.2048 36.72746667-0.68266667 54.20373333 2.93546666 41.7792 8.6016 71.40693333 46.14826667 72.9088 88.6784l0.06826667 7.23626667v689.9712c0 41.5744-18.6368 72.15786667-56.1152 90.58986667a88.74666667 88.74666667 0 0 1-39.5264 8.53333333H195.31093333a94.89066667 94.89066667 0 0 1-95.77813333-96.18773333V543.60746667z m0 0" fill="#2c2c2c" p-id="1269"></path><path d="M512.13653333 226.304H388.43733333c-40.1408 0-66.69653333-26.69226667-66.83306666-66.7648 0-19.31946667-0.06826667-38.57066667 0.06826666-57.9584 0.2048-38.2976 27.10186667-65.3312 65.39946667-65.3312h249.92426667c37.888 0 65.1264 27.30666667 65.19466666 65.05813333 0.06826667 20.34346667 0.13653333 40.7552 0 61.16693334a62.60053333 62.60053333 0 0 1-62.53226666 63.6928c-42.46186667 0.47786667-84.992 0.06826667-127.52213334 0.13653333z m126.42986667-126.22506667H385.50186667v62.53226667h252.99626666v-62.53226667h0.06826667z m0 0M511.3856 607.232H325.29066667a34.6112 34.6112 0 0 1-24.3712-7.85066667 30.44693333 30.44693333 0 0 1-9.6256-32.768 29.9008 29.9008 0 0 1 25.6-22.45973333 51.6096 51.6096 0 0 1 7.23626666-0.54613333h375.3984c21.36746667 0 35.56693333 14.40426667 34.26986667 34.4064a31.40266667 31.40266667 0 0 1-25.25866667 28.2624 68.26666667 68.26666667 0 0 1-11.81013333 0.8192c-61.78133333 0.13653333-123.56266667 0.13653333-185.344 0.13653333z m0 0M511.45386667 765.61066667H322.1504a30.03733333 30.03733333 0 0 1-29.01333333-17.95413334 30.1056 30.1056 0 0 1 3.75466666-33.31413333 30.99306667 30.99306667 0 0 1 25.8048-12.01493333h377.4464c19.72906667 0 33.65546667 13.17546667 33.65546667 31.60746666a30.99306667 30.99306667 0 0 1-30.99306667 31.60746667c-23.89333333 0.2048-47.78666667 0.06826667-71.68 0.06826667H511.45386667z m0 0M448.7168 385.16053333c42.12053333 0 84.1728-0.13653333 126.29333333 0.06826667a31.40266667 31.40266667 0 0 1 31.19786667 39.1168 31.744 31.744 0 0 1-31.47093333 24.09813333H490.63253333c-56.1152 0-112.2304 0.06826667-168.3456-0.06826666a31.67573333 31.67573333 0 1 1 0.13653334-63.21493334h126.29333333z m0 0" fill="#2c2c2c" p-id="1270"></path></svg>