<svg t="1705209729537" class="icon" viewBox="0 0 1024 1024" version="1.1" xmlns="http://www.w3.org/2000/svg" p-id="1175" width="200" height="200"><path d="M956.69248 512.75776c0 245.26848-199.04512 444.13952-444.61056 444.13952-245.53472 0-444.5184-198.8608-444.5184-444.13952 0-188.2624 117.17632-349.11232 282.6752-413.7472a431.68768 431.68768 0 0 1 161.85344-31.31392A431.73888 431.73888 0 0 1 674.02752 99.0208c165.4784 64.64512 282.6752 225.4848 282.6752 413.7472z m-615.4752-93.66528c0 74.8544 38.3488 139.65312 94.09536 171.3664 23.12192 13.1584 49.152 20.74624 76.76928 20.74624 26.64448 0 51.77344-7.09632 74.2912-19.3536 57.05728-31.11936 96.64512-96.7168 96.64512-172.7488 0-105.86112-76.66688-192.04096-170.93632-192.04096-94.208 0-170.86464 86.1696-170.86464 192.03072z m172.66688 509.0304c129.88416 0 245.76-59.74016 321.6896-153.22112-8.97024-73.73824-80.82432-136.50944-182.51776-167.8336-38.4 34.56-87.47008 55.3472-140.98432 55.3472-54.70208 0-104.77568-21.9136-143.55456-57.9584-98.9184 28.23168-171.37664 85.82144-188.3648 154.8288 75.35616 102.36928 196.8128 168.82688 333.73184 168.82688z" p-id="1176" fill="#ffffff"></path></svg>