<svg
     class="icon"
     viewBox="0 0 1024 1024"
     version="1.1"
     xmlns="http://www.w3.org/2000/svg"
     width="200"
     height="200">
    <path
        d="M690.7 719.8H540.1V593.7c61-5.8 117.6-32.3 161.5-76.2 49.9-49.9 77.4-116.3 77.4-186.9s-27.5-137-77.4-186.9-116.3-77.6-187-77.6c-70.6 0-137 27.5-186.9 77.4s-77.4 116.3-77.4 186.9 27.5 137 77.4 186.9C370.4 560 425 586.2 484.1 593v126.6H333.5c-15.5 0-28 12.5-28 28s12.5 28 28 28h150.6v137.8c0 15.5 12.5 28 28 28s28-12.5 28-28V775.8h150.6c15.5 0 28-12.5 28-28s-12.5-28-28-28zM306.2 330.5c0-114.9 93.5-208.4 208.4-208.4S723 215.6 723 330.5s-93.5 208.4-208.4 208.4-208.4-93.5-208.4-208.4z"
        fill="#eb67e5"></path>
</svg>